HIERARCHY
ROOT Hips
{
	OFFSET 0.00000 0.00000 0.00000
	CHANNELS 6 Xposition Yposition Zposition Zrotation Yrotation Xrotation 
	JOINT LHipJoint
	{
		OFFSET 0 0 0
		CHANNELS 3 Zrotation Yrotation Xrotation
		JOINT LeftUpLeg
		{
			OFFSET 1.80322 -1.53100 0.99595
			CHANNELS 3 Zrotation Yrotation Xrotation
			JOINT LeftLeg
			{
				OFFSET 2.25177 -6.18669 0.00000
				CHANNELS 3 Zrotation Yrotation Xrotation
				JOINT LeftFoot
				{
					OFFSET 2.26601 -6.22582 0.00000
					CHANNELS 3 Zrotation Yrotation Xrotation
					JOINT LeftToeBase
					{
						OFFSET 0.23701 -0.65119 2.15848
						CHANNELS 3 Zrotation Yrotation Xrotation
						End Site
						{
							OFFSET 0.00000 -0.00000 1.12949
						}
					}
				}
			}
		}
	}
	JOINT RHipJoint
	{
		OFFSET 0 0 0
		CHANNELS 3 Zrotation Yrotation Xrotation
		JOINT RightUpLeg
		{
			OFFSET -1.93977 -1.53100 0.99595
			CHANNELS 3 Zrotation Yrotation Xrotation
			JOINT RightLeg
			{
				OFFSET -2.28036 -6.26523 0.00000
				CHANNELS 3 Zrotation Yrotation Xrotation
				JOINT RightFoot
				{
					OFFSET -2.25490 -6.19528 0.00000
					CHANNELS 3 Zrotation Yrotation Xrotation
					JOINT RightToeBase
					{
						OFFSET -0.28375 -0.77960 2.23137
						CHANNELS 3 Zrotation Yrotation Xrotation
						End Site
						{
							OFFSET -0.00000 -0.00000 1.17899
						}
					}
				}
			}
		}
	}
	JOINT LowerBack
	{
		OFFSET 0 0 0
		CHANNELS 3 Zrotation Yrotation Xrotation
		JOINT Spine
		{
			OFFSET -0.00088 2.12090 -0.02806
			CHANNELS 3 Zrotation Yrotation Xrotation
			JOINT Spine1
			{
				OFFSET -0.00286 2.09666 0.12974
				CHANNELS 3 Zrotation Yrotation Xrotation
				JOINT Neck
				{
					OFFSET 0 0 0
					CHANNELS 3 Zrotation Yrotation Xrotation
					JOINT Neck1
					{
						OFFSET 0.07328 1.83526 0.07290
						CHANNELS 3 Zrotation Yrotation Xrotation
						JOINT Head
						{
							OFFSET -0.06683 1.74974 -0.49542
							CHANNELS 3 Zrotation Yrotation Xrotation
							End Site
							{
								OFFSET -0.03398 1.85163 -0.17573
							}
						}
					}
				}
				JOINT LeftShoulder
				{
					OFFSET 0 0 0
					CHANNELS 3 Zrotation Yrotation Xrotation
					JOINT LeftArm
					{
						OFFSET 3.02113 1.18018 0.40602
						CHANNELS 3 Zrotation Yrotation Xrotation
						JOINT LeftForeArm
						{
							OFFSET 4.58538 -0.00000 -0.00000
							CHANNELS 3 Zrotation Yrotation Xrotation
							JOINT LeftHand
							{
								OFFSET 2.68935 -0.00000 -0.00000
								CHANNELS 3 Zrotation Yrotation Xrotation
								JOINT LeftFingerBase
								{
									OFFSET 0 0 0
									CHANNELS 3 Zrotation Yrotation Xrotation
									JOINT LeftHandIndex1
									{
										OFFSET 0.58506 -0.00000 -0.00000
										CHANNELS 3 Zrotation Yrotation Xrotation
										End Site
										{
											OFFSET 0.47169 -0.00000 -0.00000
										}
									}
								}
								JOINT LThumb
								{
									OFFSET 0 0 0
									CHANNELS 3 Zrotation Yrotation Xrotation
									End Site
									{
										OFFSET 0.47889 -0.00000 0.47889
									}
								}
							}
						}
					}
				}
				JOINT RightShoulder
				{
					OFFSET 0 0 0
					CHANNELS 3 Zrotation Yrotation Xrotation
					JOINT RightArm
					{
						OFFSET -2.95074 1.18843 0.31430
						CHANNELS 3 Zrotation Yrotation Xrotation
						JOINT RightForeArm
						{
							OFFSET -4.47450 -0.00000 -0.00000
							CHANNELS 3 Zrotation Yrotation Xrotation
							JOINT RightHand
							{
								OFFSET -2.93896 -0.00000 -0.00000
								CHANNELS 3 Zrotation Yrotation Xrotation
								JOINT RightFingerBase
								{
									OFFSET 0 0 0
									CHANNELS 3 Zrotation Yrotation Xrotation
									JOINT RightHandIndex1
									{
										OFFSET -0.40509 -0.00000 -0.00000
										CHANNELS 3 Zrotation Yrotation Xrotation
										End Site
										{
											OFFSET -0.32660 -0.00000 -0.00000
										}
									}
								}
								JOINT RThumb
								{
									OFFSET 0 0 0
									CHANNELS 3 Zrotation Yrotation Xrotation
									End Site
									{
										OFFSET -0.33158 -0.00000 0.33158
									}
								}
							}
						}
					}
				}
			}
		}
	}
}
MOTION
Frames: 12
Frame Time: 0.0289855
0.00 0.00 0.00 0 0 0 0 0 0 -21 0 0 0 0 0 0 0 0 0 0 0 0 0 0 21 0 0 0 0 0 0 0 0 0 0 0 0 0 0 0 0 0 0 0 0 0 0 -16 0 0 21 0 0 11 0 0 0 -8 0 0 0 0 0 0 0 0 0 0 0 0 0 0 0 0 0 0 0 0 8 0 0 0 0 0 0 0 0 0 0 0 0 0 0 0 0 0
0.00 0.00 0.00 3.8949 -10.7462 7.3018 0.0000 0.0000 0.0000 -21.8670 -11.0267 -4.3255 1.0549 6.5307 18.3322 0.0908 14.3429 -21.3459 0.0086 -0.5978 -1.6427 0.0000 0.0000 0.0000 9.9140 12.1530 -15.1174 -3.0827 -10.8278 31.7014 -0.6872 -11.0099 -23.2659 -0.0561 1.5287 -4.2048 -5.4305 -2.6856 -1.9514 -1.2047 -3.7743 -6.8740 1.8843 -1.6366 -5.8017 -1.6837 -5.7315 -11.9676 0.4850 -8.4376 32.3832 -0.7590 -3.9777 12.8690 0.0000 -0.0000 0.0000 -83.2912 10.3571 5.7564 51.8934 -53.7312 -27.6935 -0.0000 0.0000 -5.5698 8.6316 20.9000 3.0997 -7.1250 0.0000 -0.0000 -19.7235 50.0367 -2.5358 0.0000 -0.0000 0.0000 80.2648 -13.0550 25.6404 -45.3244 50.9264 -22.4903 0.0000 -0.0000 -29.7996 -12.4295 -14.3816 3.1335 7.1250 -0.0000 -0.0000 13.8386 -44.2419 0.2642
0.00 0.00 0.00 3.8620 -9.2658 8.0106 0.0000 0.0000 0.0000 -21.6371 -11.4340 -7.6347 1.3425 7.3358 20.7142 0.1857 12.8180 -20.3765 0.0175 -0.8534 -2.3454 0.0000 0.0000 0.0000 9.2234 11.2881 -17.2069 -3.2462 -11.0834 32.5616 -0.6209 -10.8443 -22.5087 -0.0895 1.9293 -5.3104 -6.0895 -2.8155 -0.5552 -1.0349 -4.0378 -6.4856 2.4972 -1.7189 -6.1186 -1.5046 -6.2834 -10.8318 0.7626 -9.1118 28.4880 -0.6339 -4.2924 11.0917 -0.0000 -0.0000 0.0000 -79.2919 4.9064 8.7094 80.9859 -59.6907 -52.2017 -0.0000 0.0000 -5.4943 10.5593 21.2360 3.8627 -7.1250 0.0000 -0.0000 -18.0653 50.6559 -2.5909 -0.0000 -0.0000 0.0000 76.6522 -9.2063 26.7285 -69.0840 58.2807 -41.9908 0.0000 -0.0000 -36.3629 -15.9397 -15.4030 4.3381 7.1250 -0.0000 -0.0000 10.9561 -45.6767 -0.1852
0.00 0.00 0.00 3.7888 -8.4390 8.4460 0.0000 0.0000 0.0000 -21.5975 -11.7513 -9.4556 1.4849 7.6987 21.8026 0.2096 12.1630 -19.8258 0.0197 -0.9052 -2.4881 0.0000 0.0000 0.0000 8.6899 10.9465 -18.5964 -3.3886 -11.2990 33.2951 -0.5796 -10.6706 -21.9543 -0.1185 2.2197 -6.1132 -6.3982 -2.8857 0.4700 -0.8238 -4.2012 -6.2625 2.9471 -1.7674 -6.4218 -0.7010 -6.6003 -8.5542 -0.2082 -9.1611 22.6014 -0.8505 -4.4533 8.4491 -0.0000 -0.0000 0.0000 -76.3901 0.4104 10.9515 103.0224 -59.3494 -71.2531 -0.0000 0.0000 -6.6309 11.8230 20.9546 4.2813 -7.1250 0.0000 -0.0000 -16.7423 50.5854 -2.3618 -0.0000 -0.0000 0.0000 74.5009 -5.1104 26.0610 -87.8967 59.9833 -58.1786 0.0000 -0.0000 -39.3014 -16.8394 -15.3362 4.5768 7.1250 -0.0000 -0.0000 10.1145 -45.7209 -0.1818
0.00 0.00 0.00 3.7732 -7.8523 8.9890 0.0000 0.0000 0.0000 -21.8143 -11.8658 -11.3088 1.5409 7.8361 22.2174 0.1788 11.7661 -18.9894 0.0135 -0.7492 -2.0590 0.0000 0.0000 0.0000 7.6910 11.1473 -20.0769 -3.4985 -11.4614 33.8522 -0.5251 -10.2213 -20.9827 -0.1339 2.3590 -6.4988 -6.8165 -2.9130 1.9178 -0.5163 -4.3499 -6.0586 3.5906 -1.7876 -6.9776 0.1120 -6.7080 -7.0764 -1.4771 -8.9903 16.6964 -1.1418 -4.4867 6.1499 -0.0000 0.0000 0.0000 -72.7899 -5.8046 13.6515 124.0981 -55.1152 -89.0455 -0.0000 0.0000 -6.8423 13.5499 19.2108 4.5341 -7.1250 0.0000 -0.0000 -14.4040 49.1503 -1.5025 -0.0000 0.0000 0.0000 72.2855 0.6791 24.6527 -110.1402 58.4104 -77.3488 0.0000 -0.0000 -41.9363 -17.7194 -14.4604 4.5617 7.1250 -0.0000 -0.0000 9.0891 -44.9328 0.0152
0.00 0.00 0.00 2.2721 -8.9751 11.3989 0.0000 0.0000 0.0000 -20.5010 -11.9005 -15.4759 1.6448 8.0833 22.9674 0.1162 12.0303 -18.5863 0.0013 -0.2341 -0.6433 0.0000 0.0000 0.0000 6.8274 12.8453 -21.8193 -3.0127 -10.7155 31.3264 -0.6009 -7.8177 -19.5260 -0.1862 2.7793 -7.6649 -5.8986 -2.4890 2.4017 0.1821 -3.7427 -6.5042 3.8195 -1.4781 -7.8085 0.4054 -6.1227 -8.7818 -1.0990 -8.3007 17.0699 -1.0950 -4.0894 6.5744 -0.0000 0.0000 0.0000 -69.1442 -14.3408 18.4518 141.4038 -47.2159 -102.5981 -0.0000 0.0000 -5.6746 16.5182 15.0743 4.4103 -7.1250 0.0000 -0.0000 -10.3393 45.4147 -0.1070 -0.0000 0.0000 0.0000 70.8253 9.1610 23.0561 -129.6726 53.1267 -93.5642 0.0000 -0.0000 -43.4185 -18.0213 -12.2058 3.9348 7.1250 -0.0000 -0.0000 8.3185 -42.6439 0.4873
0.00 0.00 0.00 -1.0438 -13.3424 14.8829 0.0000 0.0000 0.0000 -17.1201 -11.0623 -23.2940 2.3039 9.4724 27.2844 0.0871 12.9616 -19.4667 0.0035 0.3816 1.0485 0.0000 0.0000 0.0000 5.4900 12.3567 -16.3518 -2.2115 -9.2934 26.7175 -1.3122 -7.0307 -25.2187 -0.5625 4.8039 -13.3502 -4.6735 -1.1646 1.7176 1.3075 -1.7818 -6.7923 4.1502 -0.5407 -7.9203 5.5979 -1.2076 -12.7003 -2.9877 -2.3923 27.5127 -2.3570 -0.9188 10.8433 -0.0000 -0.0000 0.0000 -67.3744 -31.6576 34.8134 154.2369 -36.9739 -111.2552 -0.0000 0.0000 -4.7170 21.3577 5.7123 2.2289 -7.1250 0.0000 -0.0000 -4.4924 36.0795 0.9876 -0.0000 -0.0000 0.0000 74.8955 24.6298 29.2361 -147.5165 42.9293 -106.9310 0.0000 -0.0000 -50.7091 -15.1009 -8.7546 2.3518 7.1250 -0.0000 -0.0000 10.1949 -38.8502 1.5637
0.00 0.00 0.00 -1.6965 -17.4213 14.6479 0.0000 0.0000 0.0000 -16.0276 -7.1909 -27.6644 2.9620 10.6333 31.0529 0.2222 11.6140 -19.3011 0.0004 -0.1242 -0.3413 0.0000 0.0000 0.0000 2.2986 4.2156 -7.9789 -2.4494 -9.7453 28.1558 1.2089 -19.2867 -10.7734 -0.3932 -4.0265 11.1513 -3.8597 -0.1725 1.6316 0.6385 -0.4301 -6.3333 2.8687 0.0335 -7.5122 12.1324 4.0770 -10.0419 -8.3983 5.5133 29.2067 -4.5349 2.7857 11.7687 0.0000 0.0000 0.0000 -73.0202 -41.9164 49.9679 156.4587 -34.6755 -112.5560 -0.0000 0.0000 -1.1845 26.1944 4.9379 2.4247 -7.1250 0.0000 -0.0000 -0.3986 35.4793 0.0932 0.0000 0.0000 0.0000 78.5477 26.3573 37.5126 -155.0729 36.1293 -111.7531 0.0000 -0.0000 -55.1140 -9.6514 -6.5134 1.1052 7.1250 -0.0000 -0.0000 14.3168 -36.2551 3.1587
0.00 0.00 0.00 -1.0055 -29.2653 13.8746 0.0000 0.0000 0.0000 -12.2623 -0.2596 -39.1403 6.7567 15.1236 47.9481 0.9103 11.0833 -25.2064 0.0490 -1.4290 -3.9300 0.0000 0.0000 0.0000 -0.9616 5.7515 -6.5647 -1.7438 -8.3108 23.6621 -0.0092 -12.5310 -17.9408 -1.5463 7.8491 -22.2566 -4.0730 -0.8463 2.9753 -1.7066 -1.5773 -5.8999 0.6411 -0.6077 -7.7994 17.7736 10.4826 -1.8006 -18.2539 16.4386 18.9569 -7.5852 7.7621 9.2511 0.0000 -0.0000 0.0000 -73.3618 -42.4642 50.9267 158.8317 -32.0243 -113.8610 -0.0000 -0.0000 1.1436 32.6629 1.6995 1.0892 -7.1250 0.0000 -0.0000 4.8930 31.9738 -1.5647 0.0000 -0.0000 0.0000 83.7647 22.3801 55.1362 -155.1510 36.0492 -111.7991 0.0000 -0.0000 -64.4609 -12.9050 -7.8966 1.8030 7.1250 -0.0000 -0.0000 11.8896 -37.8296 2.1351
0.00 0.00 0.00 -1.7720 4.2280 17.8531 0.0000 0.0000 0.0000 -2.1930 -18.1937 -53.7293 7.4937 15.7339 50.7177 0.5055 -1.6231 -12.9683 0.1029 -2.0684 -5.6947 0.0000 0.0000 0.0000 13.9867 -8.9503 5.8967 -0.2279 -3.0730 8.4821 -0.2491 -21.5970 -32.1152 -0.5590 4.7891 -13.3081 -0.4246 -0.7248 0.7102 -0.1235 -0.9977 -6.2039 0.1750 -0.4735 -6.8414 8.9481 2.8365 -6.6702 -9.2169 4.6138 21.9267 -4.1950 2.0756 8.2717 0.0000 -0.0000 0.0000 -91.1021 -40.3539 71.1131 155.3578 -35.8361 -111.9205 -0.0000 0.0000 -0.6785 32.5604 2.6977 1.7215 -7.1250 0.0000 -0.0000 4.8546 33.1520 -1.4139 0.0000 -0.0000 0.0000 80.6666 29.3012 52.5358 -145.8876 44.1678 -105.8087 0.0000 -0.0000 -41.5931 -19.4518 -16.1691 5.6169 7.1250 -0.0000 -0.0000 7.9104 -46.9165 -0.3764
0.00 0.00 0.00 -0.5219 12.6587 18.8834 0.0000 0.0000 0.0000 -2.7344 -22.0441 -56.6003 7.2348 15.5265 49.7569 0.2566 -5.3500 -9.1978 0.0658 -1.6547 -4.5524 0.0000 0.0000 0.0000 14.4529 -19.1114 9.0291 0.0000 -0.0000 0.0000 -0.4647 -17.4557 -28.4482 -0.3248 3.6632 -10.1311 0.6156 1.4742 -0.2312 -0.8159 1.9814 -6.2556 -1.2975 0.9372 -6.3089 4.3935 -1.2280 -8.0926 -4.4070 -1.4088 21.8655 -2.3314 -0.7044 8.0034 0.0000 0.0000 0.0000 -91.6751 -41.2396 72.6352 153.8985 -37.3087 -111.0509 -0.0000 0.0000 -1.4664 30.5456 3.3420 1.9703 -7.1250 0.0000 -0.0000 3.2251 33.8457 -0.8835 0.0000 0.0000 0.0000 76.3540 38.8946 42.8192 -127.7752 53.8543 -92.0390 0.0000 -0.0000 -32.3449 -17.5165 -20.8767 6.4172 7.1250 -0.0000 -0.0000 11.2219 -51.4368 -1.7982
0.00 0.00 0.00 -0.0458 15.7627 19.2462 0.0000 0.0000 0.0000 -2.6766 -24.1350 -57.5475 7.1724 15.4754 49.5235 0.1719 -6.0767 -7.9499 0.0563 -1.5310 -4.2113 0.0000 0.0000 0.0000 14.7322 -22.2938 8.5802 0.0000 -0.0000 0.0000 -0.8008 -15.3644 -28.5439 -0.2334 3.1091 -8.5826 1.3559 2.5289 -0.2778 -1.2012 3.4113 -6.2530 -2.1783 1.6027 -6.1795 2.6604 -2.8975 -8.5691 -2.4853 -3.8506 21.5846 -1.6203 -1.8164 7.9643 0.0000 -0.0000 0.0000 -91.7919 -41.6468 72.6889 153.2481 -37.9416 -110.6538 -0.0000 0.0000 -1.8186 29.5597 2.9022 1.6448 -7.1250 0.0000 -0.0000 2.4127 33.3084 -0.6920 0.0000 -0.0000 0.0000 73.4708 45.3605 37.1705 -106.9119 58.8912 -74.5916 0.0000 -0.0000 -27.1194 -14.5046 -22.5539 5.6667 7.1250 -0.0000 -0.0000 14.8637 -52.5872 -2.8259
